<?xml version="1.0" standalone="no"?>
<!DOCTYPE svg PUBLIC "-//W3C//DTD SVG 20010904//EN"
 "http://www.w3.org/TR/2001/REC-SVG-20010904/DTD/svg10.dtd">
<svg version="1.0" xmlns="http://www.w3.org/2000/svg"
 width="144.000000pt" height="144.000000pt" viewBox="0 0 144.000000 144.000000"
 preserveAspectRatio="xMidYMid meet">

<g transform="translate(0.000000,144.000000) scale(0.100000,-0.100000)"
fill="#000000" stroke="none">
<path d="M881 1019 c-61 -49 -111 -92 -111 -93 0 -6 211 -177 224 -182 8 -3
23 8 35 24 l21 29 -61 49 c-34 27 -70 56 -81 64 -18 15 -15 19 61 80 l80 64
-20 28 c-11 15 -24 28 -29 28 -4 0 -58 -41 -119 -91z"/>
<path d="M457 1063 c-4 -3 -7 -66 -7 -140 l0 -133 40 0 40 0 0 140 0 140 -33
0 c-19 0 -37 -3 -40 -7z"/>
<path d="M320 600 l0 -40 74 0 73 0 6 -57 c9 -85 58 -178 114 -213 122 -78
282 -36 345 90 16 30 33 83 39 118 l11 62 69 0 69 0 0 40 0 40 -400 0 -400 0
0 -40z m360 -100 l0 -60 40 0 40 0 0 60 0 60 71 0 72 0 -7 -42 c-10 -67 -56
-148 -96 -170 -54 -30 -140 -21 -181 18 -41 39 -57 71 -67 138 l-9 56 69 0 68
0 0 -60z"/>
</g>
</svg>
